<svg width="533.6455932617188px" height="230px" xmlns="http://www.w3.org/2000/svg" viewBox="-16.822796630859386 -40 533.6455932617188 230" style="background: rgba(0, 0, 0, 0);" preserveAspectRatio="xMidYMid"><defs><filter id="editing-hole" x="-100%" y="-100%" width="300%" height="300%"><feFlood flood-color="#000000" result="black"></feFlood><feMorphology operator="dilate" radius="2" in="SourceGraphic" result="erode"></feMorphology><feGaussianBlur in="erode" stdDeviation="4" result="blur"></feGaussianBlur><feOffset in="blur" dx="2" dy="2" result="offset"></feOffset><feComposite operator="atop" in="offset" in2="black" result="merge"></feComposite><feComposite operator="in" in="merge" in2="SourceGraphic" result="inner-shadow"></feComposite></filter></defs><g filter="url(#editing-hole)"><g transform="translate(58.48232698440552, 120.98999857902527)"><path d="M54.44 0L54.44 0Q40.51 1.42 34.31 1.42L34.31 1.42L34.31 1.42Q20.77 1.42 12.77-3.61L12.77-3.61L12.77-3.61Q4.77-8.64 4.77-21.80L4.77-21.80L4.77-32.51L4.77-32.51Q4.77-45.28 13.67-49.66L13.67-49.66L13.67-49.66Q17.93-51.86 24.51-51.86L24.51-51.86L24.51-51.86Q30.57-51.86 36.77-49.86L36.77-49.86L36.77-49.86Q42.96-47.86 47.21-44.63L47.21-44.63L47.21-44.63Q47.21-51.73 43.09-55.92L43.09-55.92L43.09-55.92Q38.96-60.11 27.22-60.11L27.22-60.11L27.61-65.66L27.61-65.66Q39.99-65.66 45.86-61.73L45.86-61.73L45.86-61.73Q51.73-57.79 53.08-52.37L53.08-52.37L53.08-52.37Q54.44-46.96 54.44-38.44L54.44-38.44L54.44 0ZM47.21-39.09L47.21-39.09Q41.93-41.54 35.93-43.34L35.93-43.34L35.93-43.34Q29.93-45.15 24.90-45.15L24.90-45.15L24.90-45.15Q11.87-45.15 11.87-32.12L11.87-32.12L11.87-20.90L11.87-20.90Q11.87-12.51 17.67-8.71L17.67-8.71L17.67-8.71Q23.48-4.90 34.19-4.90L34.19-4.90L34.19-4.90Q39.73-4.90 47.21-5.93L47.21-5.93L47.21-39.09ZM66.95 0L66.95-64.63L74.17-64.63L73.79-60.11L73.79-60.11Q79.85-65.79 89.66-65.79L89.66-65.79L89.66-65.79Q93.14-65.79 99.20-64.63L99.20-64.63L97.27-58.05L97.27-58.05Q93.14-59.34 88.62-59.34L88.62-59.34L88.62-59.34Q82.69-59.34 78.43-57.15L78.43-57.15L78.43-57.15Q74.17-54.95 74.17-50.57L74.17-50.57L74.17 0L66.95 0ZM121.39 1.68L121.39 1.68Q114.17-0.39 110.94-4.90L110.94-4.90L110.94-4.90Q107.72-9.42 107.72-17.03L107.72-17.03L107.72-90.30L114.94-90.30L114.94-64.63L130.42-64.63L127.32-57.79L114.94-57.79L114.94-17.03L114.94-17.03Q114.94-6.71 123.45-3.87L123.45-3.87L121.39 1.68ZM182.15 0L182.15-44.25L182.15-44.25Q182.15-52.12 177.57-55.66L177.57-55.66L177.57-55.66Q172.99-59.21 165.76-59.21L165.76-59.21L165.76-59.21Q161.38-59.21 156.86-57.99L156.86-57.99L156.86-57.99Q152.35-56.76 148.87-54.83L148.87-54.83L148.87 0L141.64 0L141.64-64.63L148.87-64.63L148.35-60.24L148.35-60.24Q151.45-62.95 156.22-64.31L156.22-64.31L156.22-64.31Q160.99-65.66 166.15-65.66L166.15-65.66L166.15-65.66Q173.25-65.66 178.28-63.34L178.28-63.34L178.28-63.34Q183.44-61.02 186.34-56.37L186.34-56.37L186.34-56.37Q189.24-51.73 189.24-44.63L189.24-44.63L189.24 0L182.15 0ZM256.06-23.74L256.06-23.74Q256.06-12.90 250.13-5.80L250.13-5.80L250.13-5.80Q244.20 1.29 232.20 1.29L232.20 1.29L232.20 1.29Q220.20 1.29 214.08-5.87L214.08-5.87L214.08-5.87Q207.95-13.03 207.95-23.74L207.95-23.74L207.95-40.76L207.95-40.76Q207.95-53.02 214.20-59.53L214.20-59.53L214.20-59.53Q220.46-66.05 232.20-66.05L232.20-66.05L232.20-66.05Q243.42-66.05 249.74-59.28L249.74-59.28L249.74-59.28Q256.06-52.50 256.06-40.76L256.06-40.76L256.06-23.74ZM248.84-40.76L248.84-40.76Q248.84-50.44 244.39-54.95L244.39-54.95L244.39-54.95Q239.94-59.47 232.20-59.47L232.20-59.47L232.20-59.47Q224.20-59.47 219.69-54.95L219.69-54.95L219.69-54.95Q215.17-50.44 215.17-40.76L215.17-40.76L215.17-22.45L215.17-22.45Q215.17-14.71 219.75-9.93L219.75-9.93L219.75-9.93Q224.33-5.16 232.20-5.16L232.20-5.16L232.20-5.16Q240.20-5.16 244.52-9.87L244.52-9.87L244.52-9.87Q248.84-14.58 248.84-22.45L248.84-22.45L248.84-40.76ZM318.50-23.74L318.50-23.74Q318.50-12.90 312.57-5.80L312.57-5.80L312.57-5.80Q306.63 1.29 294.64 1.29L294.64 1.29L294.64 1.29Q282.64 1.29 276.51-5.87L276.51-5.87L276.51-5.87Q270.38-13.03 270.38-23.74L270.38-23.74L270.38-40.76L270.38-40.76Q270.38-53.02 276.64-59.53L276.64-59.53L276.64-59.53Q282.90-66.05 294.64-66.05L294.64-66.05L294.64-66.05Q305.86-66.05 312.18-59.28L312.18-59.28L312.18-59.28Q318.50-52.50 318.50-40.76L318.50-40.76L318.50-23.74ZM311.28-40.76L311.28-40.76Q311.28-50.44 306.83-54.95L306.83-54.95L306.83-54.95Q302.38-59.47 294.64-59.47L294.64-59.47L294.64-59.47Q286.64-59.47 282.12-54.95L282.12-54.95L282.12-54.95Q277.61-50.44 277.61-40.76L277.61-40.76L277.61-22.45L277.61-22.45Q277.61-14.71 282.19-9.93L282.19-9.93L282.19-9.93Q286.77-5.16 294.64-5.16L294.64-5.16L294.64-5.16Q302.63-5.16 306.96-9.87L306.96-9.87L306.96-9.87Q311.28-14.58 311.28-22.45L311.28-22.45L311.28-40.76ZM370.10 0L345.33-40.89L338.63-35.09L338.63 0L331.40 0L331.40-90.30L338.63-90.30L338.63-43.22L364.42-67.08L369.58-62.05L350.49-45.41L350.49-45.41Q359.26-30.83 378.74 0L378.74 0L370.10 0Z" fill="#ed2c2c"></path></g></g><style>text {
  font-size: 64px;
  font-family: Arial Black;
  dominant-baseline: central;
  text-anchor: middle;
}</style></svg>